# xmcd
#
# Track frame offsets:
#	150
#	17359
#	40232
#	59714
#	75078
#	96531
#	116513
#	138260
#	156849
#	175272
#	195852
#	215755
#	234144
#	252399
#
# Disc length: 3668 seconds
#
# Revision: 1
# Processed by: cddbd v1.5.2PL0 Copyright (c) Steve Scherf et al.
# Submitted via: audiograbber 1.83.01
#
DISCID=b10e520e
DTITLE=Various Artist - On the chitlin circuit
DYEAR=2005
DGENRE=Soul
TTITLE0=Quinn Golden - Party on the weekend
TTITLE1=Carl Sims - It ain't a juke joint without the blues
TTITLE2=Bill Coday - On the chitlin' circuit
TTITLE3=Lee Shot Williams - Just another hole in the wall
TTITLE4=Denise LaSalle - Snap, crakle and pop (x-rated)
TTITLE5=Lee Shot Williams - Cheatin' is a risk
TTITLE6=Sheba Potts-Wright - Slow roll it
TTITLE7=Chuck Roberson - You've been caught
TTITLE8=Dr Feelgood Potts - Make it talk
TTITLE9=Sheba Potts-Wright - Leave me alone
TTITLE10=OB Buchana - Sue's cafe
TTITLE11=Denise LaSalle - You shoulda kept it in the bedroom
TTITLE12=Quinn Golden - Bottoms up!
TTITLE13=Ollie Nightingale - I'll dirnk your bathwater baby
EXTD=Southern Soul Hits.\neckorecords.com
EXTT0=
EXTT1=
EXTT2=
EXTT3=
EXTT4=
EXTT5=
EXTT6=
EXTT7=
EXTT8=
EXTT9=
EXTT10=
EXTT11=
EXTT12=
EXTT13=
PLAYORDER=
